<svg width="802" height="347" viewBox="0 0 802 347" fill="none" xmlns="http://www.w3.org/2000/svg">
<path d="M224 72.4492C224 60.3009 218.479 48.8109 208.994 41.2198L162.748 4.20647C153.582 -3.12971 140 3.39628 140 15.1368L140 309.296L205.117 257.524C217.048 248.038 224 233.629 224 218.387V72.4492Z" fill="#4DD4FF"/>
<path d="M193 267.158L154 140.5V298.165L193 267.158Z" fill="#2E809A"/>
<path d="M193 267.158L154 140.5V298.165L193 267.158Z" fill="#00B9F3"/>
<path d="M154 138.449C154 126.301 148.479 114.811 138.994 107.22L92.7481 70.2065C83.5819 62.8703 70 69.3963 70 81.1368V341.768C78.728 348.442 90.8923 348.34 99.5115 341.487L154 298.165V138.449Z" fill="#C35DFD"/>
<path d="M85 205.598L85 346.694C90.1412 346.603 95.258 344.866 99.5115 341.484L124 322.015L85 205.598Z" fill="#AC2FF3"/>
<path d="M85 346.697V203.449C85 191.301 79.4791 179.811 69.9945 172.22L23.7481 135.206C14.5819 127.87 1 134.396 1 146.137V263.368C1 278.736 8.06705 293.25 20.1644 302.727L69.7744 341.593C74.2397 345.092 79.6331 346.792 85 346.697Z" fill="#6951F4"/>
<path d="M366.345 254.033L294.409 89.9088H317.922L380.545 236.108H372.63L435.486 89.9088H458.068L385.667 254.033H366.345Z" fill="white"/>
<path d="M493.78 254.033L454.693 146.293H476.809L507.516 237.272H501.463L537.78 146.293H555.007L591.091 237.272H585.271L616.21 146.293H637.395L598.075 254.033H578.054L540.806 161.425H551.049L514.034 254.033H493.78Z" fill="white"/>
<path d="M660.388 254.033V89.9088H716.028C734.341 89.9088 749.784 93.0904 762.355 99.4536C775.082 105.817 784.704 115.129 791.222 127.39C797.741 139.495 801 154.317 801 171.855C801 189.392 797.741 204.292 791.222 216.552C784.704 228.813 775.082 238.125 762.355 244.488C749.784 250.852 734.341 254.033 716.028 254.033H660.388ZM682.039 235.642H714.398C736.281 235.642 752.5 230.365 763.054 219.812C773.607 209.258 778.884 193.272 778.884 171.855C778.884 150.437 773.607 134.529 763.054 124.131C752.5 113.577 736.281 108.3 714.398 108.3H682.039V235.642Z" fill="white"/>
</svg>
